<?xml version="1.0" encoding="utf-8"?>
<!-- Generator: Adobe Illustrator 26.1.0, SVG Export Plug-In . SVG Version: 6.00 Build 0)  -->
<svg version="1.1" id="레이어_1" xmlns="http://www.w3.org/2000/svg" xmlns:xlink="http://www.w3.org/1999/xlink" x="0px"
	 y="0px" viewBox="0 0 142 43" style="enable-background:new 0 0 142 43;" xml:space="preserve">
<style type="text/css">
	.st0{fill:url(#SVGID_1_);}
	.st1{fill:url(#SVGID_00000163769811812711426920000011936257902874451077_);}
	.st2{fill:url(#SVGID_00000053545958951129809330000017012186745591320209_);}
	.st3{fill:#04002D;}
</style>
<g>
	<g>
		<linearGradient id="SVGID_1_" gradientUnits="userSpaceOnUse" x1="15.0816" y1="7.6091" x2="1.325" y2="17.8564">
			<stop  offset="0" style="stop-color:#9BD2DF"/>
			<stop  offset="0.1732" style="stop-color:#93CFDB"/>
			<stop  offset="0.4483" style="stop-color:#7CC7CF"/>
			<stop  offset="0.7888" style="stop-color:#56B9BC"/>
			<stop  offset="0.9677" style="stop-color:#40B1B1"/>
		</linearGradient>
		<path class="st0" d="M8.92,22.822c1.635-1.344,3.769-3.022,6.656-5.196c-0.028-0.029-0.055-0.06-0.076-0.096l-0.697-1.167
			c-0.154-0.258-0.07-0.592,0.188-0.746c0.258-0.154,0.592-0.07,0.746,0.188l0.697,1.167c0.002,0.003,0.002,0.005,0.004,0.008
			c1.028-0.769,2.142-1.595,3.359-2.488c0,0,1.54-1.079,0.597-2.351l-1.614-2.246c0,0-0.39-0.68-1.263-0.702
			c0,0-2.246,0.491-3.158-2.035c0,0-0.561-1.685,0.07-3.369c0,0,0.491-1.053-0.562-2.737c0,0-0.744-1.704-2.86-0.772
			c0,0-1.338,0.813-3.245,2.178c0.009,0.013,0.02,0.024,0.028,0.038l0.697,1.167c0.154,0.258,0.07,0.592-0.188,0.746
			C8.21,4.46,8.113,4.485,8.019,4.485c-0.185,0-0.366-0.095-0.467-0.265L6.88,3.096C5.603,4.04,4.151,5.18,2.706,6.455
			c-1.79,1.579-2.702,3.72-2.702,7.194C0.003,13.649,0.087,16.564,8.92,22.822z M12.341,11.179c0.258-0.154,0.592-0.07,0.746,0.188
			l0.697,1.168c0.154,0.258,0.07,0.592-0.188,0.746c-0.087,0.052-0.184,0.077-0.278,0.077c-0.185,0-0.366-0.095-0.467-0.265
			l-0.697-1.168C11.999,11.667,12.083,11.333,12.341,11.179z M9.692,6.743c0.258-0.154,0.592-0.07,0.746,0.188l0.697,1.167
			c0.154,0.258,0.07,0.592-0.188,0.746c-0.087,0.052-0.184,0.077-0.278,0.077c-0.185,0-0.366-0.095-0.467-0.265L9.504,7.489
			C9.35,7.231,9.434,6.897,9.692,6.743z"/>
		
			<linearGradient id="SVGID_00000155106731002779161370000011604647816675899016_" gradientUnits="userSpaceOnUse" x1="14.9172" y1="36.451" x2="3.6872" y2="24.2385">
			<stop  offset="0" style="stop-color:#F5B5C6"/>
			<stop  offset="0.0594" style="stop-color:#EBABC1"/>
			<stop  offset="0.3675" style="stop-color:#BA7EAB"/>
			<stop  offset="0.6381" style="stop-color:#965D9B"/>
			<stop  offset="0.8581" style="stop-color:#804891"/>
			<stop  offset="1" style="stop-color:#78418D"/>
		</linearGradient>
		<path style="fill:url(#SVGID_00000155106731002779161370000011604647816675899016_);" d="M21.639,30.172
			c-6.791-3.059-12.462-7.168-12.462-7.168c-0.088-0.062-0.17-0.121-0.256-0.183c-4.368,3.593-5.18,4.809-7.337,6.778
			c-1.316,1.237-1.579,3.632-1.579,3.632c-0.211,2.658,9.159,9.159,9.159,9.159c1.369,1.053,2.393,0.421,2.393,0.421l1.976-1.579
			c1.369-1.053,1.105-1.632,1.105-1.632c-0.368-2.369,0.842-3.58,0.842-3.58c0.948-1.421,3.632-1.053,3.632-1.053
			c1.158-0.105,1.895-0.842,1.895-0.842l1.842-1.895C23.85,31.021,21.639,30.172,21.639,30.172z"/>
		
			<linearGradient id="SVGID_00000130627330036967079880000017855446825917532833_" gradientUnits="userSpaceOnUse" x1="-4.8287" y1="18.2338" x2="5.5589" y2="29.1829">
			<stop  offset="0" style="stop-color:#209EB4"/>
			<stop  offset="0.1786" style="stop-color:#347FA7"/>
			<stop  offset="0.3835" style="stop-color:#46639C"/>
			<stop  offset="0.5894" style="stop-color:#534F94"/>
			<stop  offset="0.795" style="stop-color:#5A438F"/>
			<stop  offset="1" style="stop-color:#5D3F8D"/>
		</linearGradient>
		<path style="fill:url(#SVGID_00000130627330036967079880000017855446825917532833_);" d="M8.92,22.822
			c-8.833-6.257-8.917-9.172-8.917-9.172v19.582c0,0,0.263-2.395,1.579-3.632C3.74,27.63,4.552,26.414,8.92,22.822z"/>
	</g>
	<g>
		<path class="st3" d="M32.565,16.426c0-0.326,0.055-0.61,0.166-0.852c0.111-0.241,0.258-0.447,0.441-0.617
			c0.183-0.17,0.392-0.297,0.627-0.382c0.235-0.085,0.483-0.127,0.744-0.127c0.261,0,0.509,0.043,0.744,0.127
			c0.235,0.085,0.444,0.212,0.627,0.382c0.183,0.17,0.329,0.375,0.441,0.617c0.111,0.242,0.167,0.526,0.167,0.852v4.504l4.602-5.64
			c0.196-0.235,0.414-0.418,0.656-0.548c0.241-0.13,0.489-0.215,0.744-0.255c0.255-0.039,0.509-0.032,0.764,0.02
			c0.255,0.052,0.48,0.144,0.676,0.274c0.222,0.144,0.405,0.326,0.548,0.548c0.143,0.222,0.235,0.46,0.274,0.715
			c0.039,0.255,0.026,0.513-0.039,0.774c-0.065,0.261-0.196,0.496-0.392,0.705l-3.701,4.132l5.463,8.636h-4.543l-3.486-5.777
			l-1.566,1.743v4.034h-3.956V16.426z"/>
		<path class="st3" d="M46.879,15.701c0-0.679,0.199-1.175,0.597-1.488c0.398-0.313,0.871-0.47,1.42-0.47
			c0.548,0,1.021,0.157,1.42,0.47c0.398,0.313,0.597,0.81,0.597,1.488V30.29h-4.034V15.701z"/>
		<path class="st3" d="M60.313,30.29l-0.157-0.822c-0.379,0.352-0.822,0.633-1.331,0.842c-0.509,0.209-1.058,0.313-1.645,0.313
			h-0.431c-0.405,0-0.842-0.062-1.312-0.186c-0.47-0.124-0.904-0.336-1.302-0.637c-0.398-0.3-0.731-0.705-0.999-1.214
			c-0.268-0.509-0.402-1.149-0.402-1.919c0-0.744,0.13-1.364,0.392-1.86c0.261-0.496,0.61-0.894,1.048-1.195
			c0.437-0.3,0.947-0.516,1.527-0.646c0.581-0.13,1.191-0.196,1.831-0.196h2.017c-0.013-0.287-0.069-0.525-0.167-0.715
			c-0.098-0.189-0.228-0.339-0.392-0.45c-0.163-0.111-0.352-0.189-0.568-0.235c-0.215-0.046-0.441-0.069-0.675-0.069
			c-0.222,0-0.438,0.02-0.646,0.059c-0.209,0.039-0.431,0.091-0.666,0.157c-0.157,0.052-0.304,0.111-0.441,0.176
			c-0.137,0.065-0.297,0.137-0.48,0.215c-0.183,0.091-0.376,0.14-0.578,0.147c-0.203,0.007-0.402-0.02-0.597-0.078
			c-0.196-0.059-0.375-0.153-0.538-0.284c-0.164-0.13-0.291-0.294-0.382-0.49c-0.183-0.392-0.209-0.773-0.078-1.146
			c0.13-0.372,0.365-0.688,0.705-0.95c0.261-0.196,0.555-0.359,0.881-0.49c0.326-0.13,0.666-0.238,1.018-0.323
			c0.352-0.085,0.708-0.147,1.067-0.186c0.359-0.039,0.708-0.059,1.048-0.059c0.705,0,1.381,0.075,2.027,0.225
			c0.646,0.15,1.214,0.418,1.704,0.803c0.489,0.385,0.881,0.917,1.175,1.596c0.294,0.679,0.441,1.547,0.441,2.604v7.011H60.313z
			 M59.549,25.649h-1.782c-0.379,0-0.666,0.088-0.862,0.264c-0.196,0.176-0.293,0.421-0.293,0.734c0,0.326,0.098,0.568,0.293,0.725
			c0.196,0.157,0.464,0.235,0.803,0.235h0.274c0.183,0,0.365-0.026,0.548-0.078c0.183-0.052,0.349-0.13,0.499-0.235
			c0.15-0.104,0.274-0.235,0.372-0.392c0.098-0.157,0.147-0.339,0.147-0.548V25.649z"/>
		<path class="st3" d="M72.316,30.27c-0.601,1.384-1.407,2.363-2.418,2.938c-1.012,0.574-2.203,0.764-3.574,0.568
			c-0.287-0.039-0.535-0.121-0.744-0.245c-0.209-0.124-0.382-0.278-0.519-0.46s-0.232-0.379-0.284-0.587
			c-0.052-0.209-0.066-0.424-0.039-0.646c0.065-0.444,0.258-0.813,0.578-1.106c0.32-0.294,0.774-0.389,1.361-0.284
			c0.405,0.078,0.79,0.059,1.155-0.059c0.365-0.118,0.627-0.326,0.783-0.627v-0.02l-3.995-8.89
			c-0.131-0.287-0.193-0.568-0.186-0.842c0.006-0.274,0.062-0.529,0.166-0.764c0.104-0.235,0.251-0.441,0.441-0.617
			c0.189-0.176,0.414-0.31,0.676-0.401c0.248-0.091,0.509-0.144,0.783-0.157c0.274-0.013,0.532,0.023,0.773,0.108
			c0.241,0.085,0.46,0.222,0.656,0.411c0.196,0.189,0.352,0.441,0.47,0.754l2.252,6.09l2.076-6.09
			c0.104-0.313,0.255-0.565,0.45-0.754c0.196-0.189,0.414-0.326,0.656-0.411c0.241-0.085,0.493-0.121,0.754-0.108
			c0.261,0.013,0.522,0.065,0.784,0.157c0.248,0.091,0.466,0.225,0.656,0.401c0.189,0.176,0.333,0.382,0.431,0.617
			c0.098,0.235,0.147,0.49,0.147,0.764c0,0.274-0.059,0.555-0.176,0.842L72.316,30.27z"/>
		<path class="st3" d="M80.717,30.29V17.992h-2.996c-0.287,0-0.532-0.052-0.734-0.157c-0.202-0.104-0.365-0.241-0.489-0.411
			c-0.124-0.169-0.215-0.359-0.274-0.568c-0.059-0.209-0.088-0.411-0.088-0.607c0-0.196,0.029-0.395,0.088-0.597
			c0.059-0.202,0.15-0.385,0.274-0.548c0.124-0.163,0.287-0.294,0.489-0.392c0.202-0.098,0.447-0.147,0.734-0.147h10.065
			c0.287,0,0.532,0.049,0.734,0.147c0.202,0.098,0.365,0.229,0.49,0.392c0.124,0.163,0.215,0.346,0.274,0.548
			c0.059,0.203,0.088,0.401,0.088,0.597c0,0.196-0.029,0.398-0.088,0.607c-0.059,0.209-0.153,0.398-0.284,0.568
			c-0.131,0.17-0.294,0.307-0.49,0.411c-0.196,0.105-0.437,0.157-0.725,0.157H84.79V30.29H80.717z"/>
		<path class="st3" d="M90.43,15.544c0-0.639,0.202-1.1,0.607-1.38c0.405-0.281,0.881-0.421,1.429-0.421
			c0.548,0,1.025,0.141,1.429,0.421c0.405,0.281,0.607,0.741,0.607,1.38c0,0.327-0.056,0.604-0.167,0.832
			c-0.111,0.229-0.258,0.415-0.441,0.558c-0.183,0.144-0.398,0.248-0.646,0.313c-0.248,0.065-0.509,0.098-0.783,0.098
			c-0.274,0-0.535-0.032-0.783-0.098c-0.248-0.065-0.463-0.169-0.646-0.313c-0.183-0.144-0.33-0.33-0.441-0.558
			C90.485,16.148,90.43,15.871,90.43,15.544z M90.449,20.146c0-0.679,0.199-1.175,0.597-1.488c0.398-0.313,0.871-0.47,1.42-0.47
			c0.548,0,1.021,0.157,1.42,0.47c0.398,0.313,0.597,0.81,0.597,1.488V30.29h-4.034V20.146z"/>
		<path class="st3" d="M100.417,25.218c0,0.418,0.059,0.761,0.176,1.028c0.117,0.268,0.267,0.477,0.45,0.627
			c0.183,0.15,0.388,0.255,0.617,0.313c0.228,0.059,0.454,0.088,0.676,0.088c0.326,0,0.604-0.023,0.832-0.069
			c0.228-0.046,0.473-0.127,0.734-0.245c0.143-0.065,0.294-0.14,0.45-0.225c0.157-0.085,0.326-0.14,0.509-0.166
			c0.287-0.052,0.564-0.026,0.832,0.078c0.267,0.105,0.486,0.294,0.656,0.568c0.13,0.222,0.206,0.454,0.225,0.695
			c0.02,0.242-0.013,0.477-0.098,0.705c-0.085,0.229-0.212,0.441-0.382,0.637c-0.17,0.196-0.372,0.366-0.607,0.509
			c-0.366,0.222-0.816,0.421-1.351,0.597c-0.535,0.176-1.136,0.264-1.802,0.264c-0.705,0-1.413-0.085-2.125-0.254
			c-0.712-0.17-1.351-0.463-1.919-0.881c-0.568-0.418-1.028-0.972-1.381-1.665c-0.352-0.692-0.529-1.567-0.529-2.624v-1.723
			c0-1.031,0.176-1.893,0.529-2.585c0.352-0.692,0.806-1.247,1.361-1.665c0.555-0.418,1.178-0.718,1.87-0.901
			c0.692-0.183,1.377-0.274,2.056-0.274c0.705,0,1.312,0.078,1.821,0.235c0.509,0.157,0.921,0.333,1.234,0.529
			c0.235,0.144,0.437,0.31,0.607,0.499c0.169,0.189,0.297,0.395,0.382,0.617c0.085,0.222,0.124,0.447,0.117,0.676
			c-0.007,0.229-0.075,0.454-0.206,0.676c-0.183,0.326-0.415,0.535-0.695,0.627c-0.281,0.091-0.578,0.117-0.891,0.078
			c-0.183-0.026-0.35-0.072-0.499-0.137c-0.15-0.065-0.297-0.13-0.441-0.196c-0.196-0.091-0.385-0.157-0.568-0.196
			c-0.183-0.039-0.424-0.059-0.725-0.059c-0.222,0-0.444,0.029-0.666,0.088c-0.222,0.059-0.428,0.163-0.617,0.313
			c-0.189,0.15-0.343,0.359-0.46,0.627c-0.117,0.268-0.176,0.61-0.176,1.028V25.218z"/>
		<path class="st3" d="M108.19,15.701c0-0.326,0.055-0.61,0.167-0.852c0.111-0.241,0.258-0.444,0.44-0.607
			c0.183-0.163,0.392-0.287,0.627-0.372c0.235-0.085,0.483-0.127,0.744-0.127c0.509,0,0.96,0.163,1.351,0.49
			c0.391,0.326,0.587,0.816,0.587,1.469v6.815l3.466-3.819c0.17-0.183,0.369-0.333,0.597-0.45c0.228-0.117,0.463-0.192,0.705-0.225
			c0.241-0.033,0.486-0.02,0.734,0.039c0.248,0.059,0.476,0.167,0.686,0.323c0.208,0.157,0.372,0.353,0.49,0.587
			c0.117,0.235,0.186,0.48,0.206,0.734c0.02,0.255-0.01,0.506-0.088,0.754c-0.078,0.248-0.209,0.457-0.391,0.627l-2.585,2.487
			l4.328,6.717h-4.425l-2.546-4.191l-1.175,1.136v3.055h-3.916V15.701z"/>
		<path class="st3" d="M126.617,30.623c-0.705,0-1.417-0.091-2.135-0.274c-0.718-0.183-1.368-0.483-1.948-0.901
			c-0.581-0.418-1.051-0.976-1.41-1.674c-0.359-0.698-0.538-1.557-0.538-2.575v-1.723c0-1.044,0.173-1.912,0.519-2.604
			c0.346-0.692,0.79-1.246,1.332-1.664c0.542-0.418,1.142-0.715,1.802-0.891c0.659-0.176,1.302-0.264,1.929-0.264
			c0.679,0,1.341,0.082,1.987,0.245c0.646,0.163,1.224,0.473,1.733,0.93c0.509,0.457,0.917,1.094,1.224,1.909
			c0.307,0.816,0.46,1.87,0.46,3.162c0,0.17-0.01,0.372-0.029,0.607c-0.019,0.235-0.042,0.438-0.068,0.607h-7.01v0.02
			c0,0.34,0.071,0.62,0.215,0.842c0.143,0.222,0.326,0.405,0.548,0.548c0.222,0.144,0.463,0.245,0.725,0.304
			c0.261,0.059,0.509,0.088,0.744,0.088c0.483,0,0.855-0.02,1.116-0.059c0.261-0.039,0.522-0.104,0.783-0.196
			c0.144-0.052,0.291-0.108,0.441-0.166c0.15-0.059,0.31-0.101,0.48-0.127c0.339-0.039,0.649,0,0.93,0.117
			c0.28,0.118,0.486,0.327,0.617,0.627c0.209,0.483,0.212,0.924,0.01,1.322c-0.203,0.398-0.539,0.734-1.008,1.008
			c-0.157,0.091-0.356,0.183-0.597,0.274c-0.242,0.091-0.516,0.176-0.822,0.255c-0.307,0.078-0.633,0.14-0.979,0.186
			C127.319,30.6,126.97,30.623,126.617,30.623z M126.186,21.223c-0.222,0-0.434,0.029-0.636,0.088
			c-0.203,0.059-0.382,0.157-0.539,0.294c-0.157,0.137-0.287,0.313-0.391,0.529c-0.105,0.215-0.157,0.487-0.157,0.813h3.309
			c0.013-0.326-0.023-0.597-0.108-0.813c-0.085-0.215-0.199-0.392-0.343-0.529c-0.144-0.137-0.317-0.235-0.519-0.294
			C126.601,21.253,126.395,21.223,126.186,21.223z"/>
		<path class="st3" d="M134.724,21.674h-0.646c-0.614,0-1.054-0.163-1.322-0.49c-0.268-0.326-0.401-0.698-0.401-1.116
			c0-0.196,0.029-0.392,0.088-0.588c0.059-0.196,0.157-0.372,0.294-0.529c0.137-0.157,0.316-0.284,0.538-0.382
			c0.222-0.098,0.49-0.147,0.803-0.147h0.646v-2.036c0-0.326,0.056-0.614,0.167-0.862c0.111-0.248,0.258-0.45,0.441-0.607
			c0.182-0.157,0.388-0.274,0.617-0.352c0.228-0.078,0.467-0.118,0.715-0.118c0.248,0,0.486,0.039,0.715,0.118
			c0.228,0.078,0.434,0.196,0.617,0.352c0.182,0.157,0.329,0.359,0.441,0.607c0.111,0.248,0.166,0.535,0.166,0.862v2.036h1.155
			c0.313,0,0.578,0.049,0.793,0.147c0.215,0.098,0.392,0.225,0.529,0.382c0.137,0.157,0.238,0.333,0.304,0.529
			c0.065,0.196,0.098,0.392,0.098,0.588c0,0.418-0.134,0.79-0.401,1.116c-0.268,0.326-0.708,0.49-1.322,0.49h-1.155v4.856
			c0,0.301,0.062,0.496,0.186,0.588c0.124,0.091,0.271,0.144,0.441,0.157c0.143,0.013,0.274,0.003,0.391-0.029
			c0.117-0.032,0.274-0.049,0.47-0.049c0.326,0,0.613,0.098,0.862,0.294c0.248,0.196,0.404,0.457,0.47,0.783
			c0.091,0.405,0.062,0.764-0.088,1.077c-0.15,0.313-0.362,0.561-0.636,0.744c-0.222,0.144-0.503,0.267-0.842,0.372
			c-0.34,0.104-0.679,0.156-1.018,0.156c-0.653,0-1.234-0.072-1.743-0.215c-0.509-0.144-0.94-0.372-1.292-0.685
			c-0.352-0.313-0.62-0.725-0.803-1.234c-0.183-0.509-0.274-1.136-0.274-1.88V21.674z"/>
	</g>
</g>
</svg>
